<?xml version="1.0"?>
<svg xmlns="http://www.w3.org/2000/svg" viewBox="0 0 50 50" enable-background="new 0 0 50 50">
    <path style="text-indent:0;text-align:start;line-height:normal;text-transform:none;block-progression:tb;-inkscape-font-specification:Bitstream Vera Sans" d="M 11 4 C 9.3545455 4 8 5.3545455 8 7 L 8 12 L 7 12 A 1.0001 1.0001 0 0 0 6.90625 12 A 1.001098 1.001098 0 0 0 7 14 L 11 14 A 1.0001 1.0001 0 1 0 11 12 L 10 12 L 10 7 C 10 6.4454545 10.445455 6 11 6 L 39 6 C 39.554545 6 40 6.4454545 40 7 L 40 43 C 40 43.554545 39.554545 44 39 44 L 11 44 C 10.445455 44 10 43.554545 10 43 L 10 39 L 8 39 L 8 43 C 8 44.645455 9.3545455 46 11 46 L 39 46 C 40.645455 46 42 44.645455 42 43 L 42 7 C 42 5.3545455 40.645455 4 39 4 L 11 4 z M 8 15 L 8 18 L 7 18 A 1.0001 1.0001 0 0 0 6.90625 18 A 1.001098 1.001098 0 0 0 6.8125 18 A 1.0043849 1.0043849 0 0 0 7 20 L 11 20 A 1.0001 1.0001 0 1 0 11 18 L 10 18 L 10 15 L 8 15 z M 26 16 C 19.9 16 16 20.8125 16 26.3125 C 16 31.6125 19.8125 34.8125 24.3125 34.8125 C 26.2125 34.8125 27.5875 34.6125 29.1875 33.8125 L 28.6875 32.3125 C 27.5875 32.9125 26.1875 33.1875 24.6875 33.1875 C 20.6875 33.1875 17.8125 30.5 17.8125 26 C 17.8125 20.7 21.3875 17.40625 25.6875 17.40625 C 29.8875 17.40625 32.1875 20.20625 32.1875 23.90625 C 32.1875 27.00625 30.70625 28.69375 29.40625 28.59375 C 28.60625 28.59375 28.3875 27.8 28.6875 26 L 29.5 21 C 28.8 20.7 27.60625 20.40625 26.40625 20.40625 C 22.60625 20.40625 20.09375 23.3875 20.09375 26.6875 C 20.09375 28.8875 21.39375 30.1875 23.09375 30.1875 C 24.59375 30.1875 25.7875 29.5 26.6875 28 L 26.8125 28 C 26.9125 29.5 27.8 30.1875 29 30.1875 C 31.8 30.1875 34 27.8125 34 23.8125 C 34 19.3125 30.7 16 26 16 z M 8 21 L 8 24 L 7 24 A 1.0001 1.0001 0 0 0 6.90625 24 A 1.001098 1.001098 0 0 0 7 26 L 11 26 A 1.0001 1.0001 0 1 0 11 24 L 10 24 L 10 21 L 8 21 z M 26.09375 22.1875 C 26.59375 22.1875 26.9875 22.30625 27.1875 22.40625 L 26.6875 25.09375 C 26.4875 26.69375 25.2 28.3125 24 28.3125 C 22.9 28.3125 22.40625 27.6 22.40625 26.5 C 22.40625 24.2 23.99375 22.1875 26.09375 22.1875 z M 8 27 L 8 30 L 7 30 A 1.0001 1.0001 0 0 0 6.90625 30 A 1.001098 1.001098 0 0 0 7 32 L 11 32 A 1.0001 1.0001 0 1 0 11 30 L 10 30 L 10 27 L 8 27 z M 8 33 L 8 36 L 7 36 A 1.0001 1.0001 0 0 0 6.90625 36 A 1.001098 1.001098 0 0 0 7 38 L 11 38 A 1.0001 1.0001 0 1 0 11 36 L 10 36 L 10 33 L 8 33 z"/>
</svg>
